<?xml version="1.0" encoding="UTF-8"?><svg xmlns="http://www.w3.org/2000/svg" viewBox="0 0 506.85 85.31"><defs><style>.d{fill:#c4c7cf;}</style></defs><g id="a"/><g id="b"><g id="c"><g><g><path class="d" d="M118.42,56.02c-.18-.18-.27-.38-.27-.62s.01-.4,.04-.48l10.94-28.55c.24-.65,.71-.97,1.41-.97h3c.71,0,1.18,.32,1.41,.97l10.9,28.55,.09,.48c0,.24-.09,.44-.27,.62s-.38,.27-.62,.27h-2.25c-.32,0-.57-.08-.75-.24-.18-.16-.29-.33-.35-.51l-2.43-6.27h-14.48l-2.43,6.27c-.06,.18-.18,.35-.38,.51s-.43,.24-.73,.24h-2.25c-.24,0-.44-.09-.62-.27Zm19.59-10.55l-5.96-15.67-5.96,15.67h11.92Z"/><path class="d" d="M160.46,56c-.19-.19-.29-.43-.29-.73v-10.42l-10.64-18.01c0-.06-.02-.15-.05-.27-.06-.12-.09-.22-.09-.31,0-.24,.09-.44,.27-.62,.18-.18,.38-.27,.62-.27h2.29c.5,0,.88,.25,1.15,.75l8.61,14.3,8.61-14.3c.32-.5,.72-.75,1.19-.75h2.25c.27,0,.49,.09,.66,.27,.18,.18,.27,.38,.27,.62,0,.15-.06,.34-.18,.57l-10.59,18.01v10.42c0,.29-.1,.54-.31,.73s-.46,.29-.75,.29h-2.3c-.29,0-.54-.09-.73-.29Z"/><path class="d" d="M187.73,53.66c-2.08-2.04-3.11-5.14-3.11-9.29V26.45c0-.32,.09-.58,.29-.77,.19-.19,.43-.29,.73-.29h2.25c.32,0,.58,.1,.77,.29,.19,.19,.29,.45,.29,.77v18.01c0,2.82,.66,4.94,1.99,6.36,1.32,1.41,3.19,2.12,5.61,2.12s4.28-.71,5.61-2.12c1.32-1.41,1.99-3.53,1.99-6.36V26.45c0-.32,.09-.58,.29-.77s.43-.29,.73-.29h2.29c.29,0,.54,.1,.73,.31,.19,.21,.29,.46,.29,.75v17.92c0,4.15-1.04,7.25-3.11,9.29-2.07,2.05-5.01,3.07-8.8,3.07s-6.73-1.02-8.8-3.07Z"/><path class="d" d="M220.53,56c-.19-.19-.29-.43-.29-.73V26.45c0-.32,.09-.58,.29-.77,.19-.19,.43-.29,.73-.29h10.02c4.44,0,7.65,.99,9.62,2.98,1.97,1.99,3,4.98,3.09,8.98,.03,.85,.04,2,.04,3.44s-.01,2.6-.04,3.49c-.09,2.8-.55,5.07-1.39,6.82-.84,1.75-2.16,3.05-3.95,3.91-1.79,.85-4.18,1.28-7.15,1.28h-10.24c-.29,0-.54-.09-.73-.29Zm10.75-3.47c2.03,0,3.64-.28,4.83-.84,1.19-.56,2.06-1.45,2.6-2.67,.54-1.22,.84-2.86,.9-4.92,.06-1.77,.09-2.87,.09-3.31,0-.47-.03-1.56-.09-3.27-.06-2.91-.75-5.04-2.07-6.38-1.32-1.34-3.49-2.01-6.49-2.01h-6.49v23.39h6.71Z"/><path class="d" d="M251.84,56.02c-.18-.18-.27-.38-.27-.62s.01-.4,.04-.48l10.94-28.55c.24-.65,.71-.97,1.41-.97h3c.71,0,1.18,.32,1.41,.97l10.9,28.55,.09,.48c0,.24-.09,.44-.27,.62s-.38,.27-.62,.27h-2.25c-.32,0-.57-.08-.75-.24-.18-.16-.29-.33-.35-.51l-2.43-6.27h-14.48l-2.43,6.27c-.06,.18-.18,.35-.38,.51s-.43,.24-.73,.24h-2.25c-.24,0-.44-.09-.62-.27Zm19.59-10.55l-5.96-15.67-5.96,15.67h11.92Z"/><path class="d" d="M308.53,56c-.19-.19-.29-.43-.29-.73V29.32h-8.47c-.29,0-.54-.09-.73-.29-.19-.19-.29-.43-.29-.73v-1.85c0-.29,.1-.54,.29-.75,.19-.21,.43-.31,.73-.31h21.27c.32,0,.58,.1,.77,.29s.29,.45,.29,.77v1.85c0,.29-.1,.54-.31,.73-.21,.19-.46,.29-.75,.29h-8.43v25.95c0,.29-.1,.54-.31,.73s-.46,.29-.75,.29h-2.29c-.29,0-.54-.09-.73-.29Z"/><path class="d" d="M345.49,55.97c-.21-.21-.31-.46-.31-.75V26.49c0-.32,.09-.59,.29-.8,.19-.21,.45-.31,.77-.31h11.83c3.53,0,6.31,.83,8.34,2.49,2.03,1.66,3.04,4.1,3.04,7.3s-1.01,5.63-3.02,7.26c-2.02,1.63-4.8,2.45-8.36,2.45h-6.58v10.33c0,.29-.1,.54-.29,.75s-.45,.31-.77,.31h-4.19c-.29,0-.54-.1-.75-.31Zm12.36-15.98c1.71,0,3.02-.41,3.93-1.21,.91-.81,1.37-2.01,1.37-3.6s-.44-2.73-1.33-3.6c-.88-.87-2.21-1.3-3.97-1.3h-6.44v9.71h6.44Z"/><path class="d" d="M386.23,55.97c-.21-.21-.31-.46-.31-.75v-9.98l-10.41-18.45c-.09-.15-.13-.31-.13-.49,0-.26,.09-.48,.27-.66,.18-.18,.38-.27,.62-.27h3.93c.32,0,.6,.09,.82,.27,.22,.18,.39,.37,.51,.57l7.5,12.84,7.46-12.84c.35-.56,.81-.84,1.37-.84h3.88c.27,0,.49,.09,.66,.27,.18,.18,.27,.4,.27,.66,0,.18-.04,.34-.13,.49l-10.42,18.45v9.98c0,.29-.1,.54-.31,.75s-.47,.31-.79,.31h-4.02c-.29,0-.54-.1-.75-.31Z"/><path class="d" d="M411.83,56c-.21-.19-.31-.45-.31-.77V26.49c0-.32,.1-.59,.31-.8s.47-.31,.79-.31h3.49c.62,0,1.06,.28,1.33,.84l8.52,15.89,8.61-15.89c.29-.56,.73-.84,1.32-.84h3.44c.32,0,.59,.1,.79,.31,.21,.21,.31,.47,.31,.8v28.73c0,.32-.1,.58-.31,.77s-.47,.29-.79,.29h-3.71c-.29,0-.54-.1-.75-.31-.21-.21-.31-.46-.31-.75v-19.11l-6.18,11.79c-.38,.65-.88,.97-1.5,.97h-1.81c-.62,0-1.12-.32-1.5-.97l-6.18-11.79v19.11c0,.29-.09,.54-.29,.75s-.45,.31-.77,.31h-3.71c-.32,0-.59-.09-.79-.29Z"/><path class="d" d="M452.03,55.97c-.21-.21-.31-.46-.31-.75V26.49c0-.32,.09-.59,.29-.8,.19-.21,.45-.31,.77-.31h19.42c.32,0,.59,.1,.79,.31,.21,.21,.31,.47,.31,.8v2.91c0,.32-.1,.58-.31,.77s-.47,.29-.79,.29h-14.52v7.81h13.55c.32,0,.59,.1,.8,.29,.21,.19,.31,.45,.31,.77v2.74c0,.32-.1,.58-.31,.77-.21,.19-.47,.29-.8,.29h-13.55v8.08h14.87c.32,0,.59,.1,.79,.31s.31,.47,.31,.79v2.91c0,.32-.1,.58-.31,.77s-.47,.29-.79,.29h-19.77c-.29,0-.54-.1-.75-.31Z"/><path class="d" d="M487.56,55.53c-1.88-.8-3.31-1.84-4.28-3.13-.97-1.3-1.49-2.69-1.54-4.19,0-.27,.09-.49,.27-.66s.4-.26,.66-.26h3.93c.35,0,.62,.06,.82,.2,.19,.13,.38,.35,.55,.64,.29,1,.97,1.84,2.03,2.52,1.06,.68,2.5,1.01,4.33,1.01,2.09,0,3.66-.34,4.72-1.04,1.06-.69,1.59-1.66,1.59-2.89,0-.82-.27-1.5-.82-2.03-.55-.53-1.36-.99-2.43-1.37-1.07-.38-2.67-.85-4.79-1.41-3.47-.82-6.01-1.92-7.61-3.29-1.6-1.37-2.41-3.32-2.41-5.85,0-1.71,.46-3.22,1.39-4.55,.93-1.33,2.26-2.37,4.02-3.13,1.75-.77,3.79-1.15,6.11-1.15s4.5,.43,6.27,1.28c1.76,.85,3.11,1.92,4.04,3.2,.93,1.28,1.42,2.55,1.48,3.82,0,.27-.09,.49-.27,.66-.18,.18-.4,.27-.66,.27h-4.1c-.62,0-1.04-.28-1.28-.84-.18-.94-.77-1.73-1.76-2.36-1-.63-2.24-.95-3.71-.95-1.65,0-2.94,.31-3.88,.93-.94,.62-1.41,1.52-1.41,2.69,0,.82,.24,1.5,.71,2.03,.47,.53,1.21,1,2.23,1.41,1.01,.41,2.48,.87,4.39,1.37,2.59,.59,4.66,1.25,6.2,1.99,1.54,.74,2.69,1.66,3.42,2.78,.74,1.12,1.1,2.55,1.1,4.28,0,1.88-.52,3.52-1.57,4.92-1.04,1.4-2.52,2.46-4.41,3.2-1.9,.74-4.08,1.1-6.55,1.1-2.62,0-4.87-.4-6.75-1.19Z"/></g><path class="d" d="M72.93,12.61L38.32,47.23c-3.95,3.95-6.16,9.3-6.16,14.87v17.02c-15.84-4.55-27.44-19.15-27.44-36.46,0-10.31,4.11-19.65,10.79-26.49v16.24h10.47c3.75,0,7.34-1.49,9.99-4.14l12.1-12.1H15.51c6.89-7.06,16.5-11.44,27.15-11.44,5,0,9.77,.97,14.14,2.72l3.6-3.6c-5.5-2.51-11.51-3.84-17.74-3.84C31.26,0,20.55,4.44,12.49,12.49,4.44,20.55,0,31.26,0,42.66s4.44,22.11,12.49,30.16c8.06,8.06,18.77,12.49,30.16,12.49s22.11-4.44,30.16-12.49c8.06-8.06,12.49-18.77,12.49-30.16s-4.4-22-12.38-30.05Zm-19.79,66.51V32.4h16.45V15.95c6.8,6.86,11,16.29,11,26.71,0,17.31-11.6,31.92-27.45,36.47Z"/></g></g></g></svg>