<svg xmlns="http://www.w3.org/2000/svg" viewBox="0 0 15.04 16.05"><defs><style>.cls-1{fill:#fff;}.cls-2{fill:#01193f;}</style></defs><g id="Capa_2" data-name="Capa 2"><g id="Capa_1-2" data-name="Capa 1"><rect class="cls-1" width="15.04" height="16.05"/><path class="cls-2" d="M11.5,3.19a.89.89,0,1,0,.88.88A.88.88,0,0,0,11.5,3.19Z"/><path class="cls-2" d="M7.58,4.32A3.71,3.71,0,1,0,11.28,8,3.71,3.71,0,0,0,7.58,4.32Zm0,6.08A2.38,2.38,0,1,1,10,8,2.37,2.37,0,0,1,7.58,10.4Z"/><path class="cls-2" d="M10.52,15.55h-6A4.53,4.53,0,0,1,0,11V5A4.52,4.52,0,0,1,4.52.51h6A4.52,4.52,0,0,1,15,5v6A4.53,4.53,0,0,1,10.52,15.55Zm-6-13.63A3.11,3.11,0,0,0,1.41,5v6a3.11,3.11,0,0,0,3.11,3.1h6a3.1,3.1,0,0,0,3.1-3.1V5a3.1,3.1,0,0,0-3.1-3.1Z"/></g></g></svg>