<svg xmlns="http://www.w3.org/2000/svg" viewBox="0 0 15.04 16.05"><defs><style>.cls-1{fill:#fff;}.cls-2,.cls-3{fill:#01193f;}.cls-3{fill-rule:evenodd;}</style></defs><g id="Capa_2" data-name="Capa 2"><g id="Capa_1-2" data-name="Capa 1"><rect class="cls-1" width="15.04" height="16.05"/><path class="cls-2" d="M.08,15.48l1.07-4A7.26,7.26,0,0,1,.22,7.94,7.37,7.37,0,1,1,7.59,15.3a7.28,7.28,0,0,1-3.5-.89Zm4.21-2.56.25.15a6,6,0,1,0-2-2l.16.26-.6,2.23Z"/><path class="cls-3" d="M10.33,9a1.26,1.26,0,0,0-1.05-.24c-.28.12-.45.54-.63.76a.26.26,0,0,1-.34.08A4.73,4.73,0,0,1,5.93,7.51a.3.3,0,0,1,0-.4,1.67,1.67,0,0,0,.44-.7,1.62,1.62,0,0,0-.2-.83,2,2,0,0,0-.61-.93.85.85,0,0,0-.92.14A1.83,1.83,0,0,0,4,6.26a1.89,1.89,0,0,0,.06.47,4.08,4.08,0,0,0,.45,1A7.8,7.8,0,0,0,5,8.47a7.13,7.13,0,0,0,2,1.88,6.06,6.06,0,0,0,1.26.6,2.8,2.8,0,0,0,1.48.24,1.79,1.79,0,0,0,1.33-1,.79.79,0,0,0,.06-.5C11.09,9.34,10.61,9.13,10.33,9Z"/></g></g></svg>